<svg id="flat" height="512" viewBox="0 0 512 512" width="512" xmlns="http://www.w3.org/2000/svg"><path d="m488 88v384a16 16 0 0 1 -16 16h-432a16 16 0 0 1 -16-16v-384z" fill="#e0edff"/><path d="m24 88v-48a16 16 0 0 1 16-16h432a16 16 0 0 1 16 16v48z" fill="#e0edff"/><g fill="#bdd1f2"><circle cx="56" cy="56" r="8"/><circle cx="80" cy="56" r="8"/><circle cx="104" cy="56" r="8"/></g><path d="m216 224h32v32h-32z" fill="#548aff"/><path d="m248 264h-32a7.99977 7.99977 0 0 1 -8-8v-32a7.99977 7.99977 0 0 1 8-8h32a7.99977 7.99977 0 0 1 8 8v32a7.99977 7.99977 0 0 1 -8 8zm-24-16h16v-16h-16z" fill="#7dafff"/><path d="m280 232h24v16h-24z" fill="#548aff"/><path d="m320 232h112v16h-112z" fill="#548aff"/><path d="m216 288h32v32h-32z" fill="#548aff"/><path d="m248 328h-32a7.99977 7.99977 0 0 1 -8-8v-32a7.99977 7.99977 0 0 1 8-8h32a7.99977 7.99977 0 0 1 8 8v32a7.99977 7.99977 0 0 1 -8 8zm-24-16h16v-16h-16z" fill="#7dafff"/><path d="m280 296h24v16h-24z" fill="#548aff"/><path d="m320 296h112v16h-112z" fill="#548aff"/><path d="m216 352h32v32h-32z" fill="#548aff"/><path d="m248 392h-32a7.99977 7.99977 0 0 1 -8-8v-32a7.99977 7.99977 0 0 1 8-8h32a7.99977 7.99977 0 0 1 8 8v32a7.99977 7.99977 0 0 1 -8 8zm-24-16h16v-16h-16z" fill="#7dafff"/><path d="m280 360h24v16h-24z" fill="#548aff"/><path d="m320 360h112v16h-112z" fill="#548aff"/><path d="m216 416h32v32h-32z" fill="#548aff"/><path d="m248 456h-32a7.99977 7.99977 0 0 1 -8-8v-32a7.99977 7.99977 0 0 1 8-8h32a7.99977 7.99977 0 0 1 8 8v32a7.99977 7.99977 0 0 1 -8 8zm-24-16h16v-16h-16z" fill="#7dafff"/><path d="m280 424h24v16h-24z" fill="#548aff"/><path d="m320 424h112v16h-112z" fill="#548aff"/><path d="m64 104v344h112v-264h272v-80z" fill="#548aff"/><path d="m64 184h112v16h-112z" fill="#4976f2"/><path d="m432 104h16v80h-16z" fill="#4976f2"/></svg>