<svg id="flat" height="512" viewBox="0 0 512 512" width="512" xmlns="http://www.w3.org/2000/svg"><path d="m24 80h352v352h-352z" fill="#ffc431"/><path d="m488 432v-17.692a144.49732 144.49732 0 0 0 -2.806-28.33825v-.00005a144.49735 144.49735 0 0 1 -.84-52.09347 267.97083 267.97083 0 0 0 3.646-44.05423v-105.822h-192v17.822a267.97059 267.97059 0 0 0 3.646 44.05421v.00005a144.49741 144.49741 0 0 1 -.84 52.09348 144.49732 144.49732 0 0 0 -2.806 28.33831v105.69195z" fill="#d69651"/><path d="m152 80v104l24-24 24 24 24-24 24 24v-104z" fill="#ffa100"/><path d="m64 248h160v144h-160z" fill="#ffb401"/><g fill="#ffa100"><path d="m112 280h16v16h-16z"/><path d="m144 280h48v16h-48z"/><path d="m96 312h48v16h-48z"/><path d="m160 312h32v16h-32z"/><path d="m96 344h96v16h-96z"/></g><path d="m336 296h112v96h-112z" fill="#c78640"/><path d="m376 320h48v16h-48z" fill="#b1712c"/><path d="m360 352h64v16h-64z" fill="#b1712c"/><path d="m392 208h96v16h-96z" fill="#c78640"/><path d="m336 208h32v16h-32z" fill="#c78640"/></svg>